<svg width="559" height="608" viewBox="0 0 559 608" fill="none" xmlns="http://www.w3.org/2000/svg">
<path d="M275.011 295.5C272.011 294.833 262.711 296.7 249.511 309.5C233.011 325.5 234.511 326 229.511 331C229.511 333 244.511 350.833 252.011 359.5C261.011 370.096 287.611 391.03 322.011 390C365.011 388.712 395.511 380.5 412.511 362C426.111 347.2 465.844 290.5 484.011 264C499.177 242 529.711 197.7 530.511 196.5C531.511 195 552.511 158 553.011 145.5C553.511 133 560.511 113.5 546.011 79C531.511 44.5 502.011 12.5 457.011 6C412.011 -0.5 376.511 8 345.511 44C320.711 72.8 262.844 159.333 237.011 199L220.011 235V237.939M220.011 237.939C207.194 246.573 197.269 256.047 192.511 261.5C164.511 301.833 104.611 388.3 89.0108 411.5C69.5108 440.5 52.0108 480.5 71.5108 528C87.1108 566 118.677 587.5 132.511 593.5C137.844 597.167 157.111 604.5 191.511 604.5C225.911 604.5 260.177 578.5 273.011 565.5L399.511 373C386.344 379.167 359.111 391.7 355.511 392.5C351.911 393.3 326.677 393.833 314.511 394C294.511 424.333 250.011 489.7 232.011 508.5C209.511 532 185.511 531 168.011 524.5C150.511 518 140.511 502 137.011 485C134.211 471.4 140.177 454 143.511 447C156.844 429.833 190.011 384.1 216.011 338.5C248.511 281.5 295.011 294.5 304.511 295.5C312.111 296.3 321.677 307.5 325.511 313C356.311 315.4 381.344 291.667 390.011 279.5C387.511 271.333 375.211 250.8 346.011 234C309.511 213 282.511 212 249.511 223C238.814 226.566 228.741 232.057 220.011 237.939Z" stroke="black" stroke-width="7"/>
<path d="M302.512 217C305.712 213.4 355.512 140.833 380.012 105C387.512 94.3333 409.712 74.2 438.512 79C474.512 85 482.012 113.5 482.012 118.5C482.012 123.5 479.012 154.5 475.512 162C472.712 168 426.012 237.167 403.012 271L380.012 298.5L358.012 311C352.178 312.667 340.012 316.1 338.012 316.5C336.012 316.9 320.845 314.667 313.512 313.5C310.012 311.667 301.512 305.7 295.512 296.5" stroke="black" stroke-width="7"/>
<circle cx="492" cy="333" r="10" fill="black"/>
<circle cx="261" cy="408" r="10" fill="#0085FF"/>
<circle cx="183" cy="94" r="10" fill="#6486FF"/>
<circle cx="10" cy="513" r="10" fill="black"/>
<circle cx="48" cy="408" r="4" fill="black"/>
<circle cx="337" cy="210" r="4" fill="black"/>
<circle cx="393" cy="252" r="4" fill="black"/>
<circle cx="224" cy="347" r="4" fill="black"/>
<circle cx="109" cy="313" r="4" fill="#00A3FF"/>
<circle cx="205" cy="478" r="4" fill="black"/>
<circle cx="415" cy="182" r="4" fill="#BDD0FF"/>
<circle cx="271" cy="84" r="4" fill="black"/>
<circle cx="354" cy="550" r="4" fill="black"/>
<circle cx="415" cy="386" r="4" fill="black"/>
</svg>
